<svg width="14" height="20" viewBox="0 0 14 20" fill="none" xmlns="http://www.w3.org/2000/svg">
<path d="M13.8333 4.99999C13.8333 4.44771 13.3856 3.99999 12.8333 3.99999C12.2811 3.99999 11.8333 4.44771 11.8333 4.99999H13.8333ZM2.16667 4.99999C2.16667 4.44771 1.71896 3.99999 1.16667 3.99999C0.614387 3.99999 0.166672 4.44771 0.166672 4.99999H2.16667ZM2.66667 4.99999C2.66667 5.55227 3.11439 5.99999 3.66667 5.99999C4.21896 5.99999 4.66667 5.55227 4.66667 4.99999H2.66667ZM9.33334 4.99999C9.33334 5.55227 9.78105 5.99999 10.3333 5.99999C10.8856 5.99999 11.3333 5.55227 11.3333 4.99999H9.33334ZM11.8333 4.99999V16.6667H13.8333V4.99999H11.8333ZM11.8333 16.6667C11.8333 17.0348 11.5349 17.3333 11.1667 17.3333V19.3333C12.6394 19.3333 13.8333 18.1394 13.8333 16.6667H11.8333ZM11.1667 17.3333H2.83334V19.3333H11.1667V17.3333ZM2.83334 17.3333C2.46515 17.3333 2.16667 17.0348 2.16667 16.6667H0.166672C0.166672 18.1394 1.36058 19.3333 2.83334 19.3333V17.3333ZM2.16667 16.6667V4.99999H0.166672V16.6667H2.16667ZM4.66667 4.99999V3.33332H2.66667V4.99999H4.66667ZM4.66667 3.33332C4.66667 2.96513 4.96515 2.66666 5.33334 2.66666V0.666656C3.86058 0.666656 2.66667 1.86056 2.66667 3.33332H4.66667ZM5.33334 2.66666H8.66667V0.666656H5.33334V2.66666ZM8.66667 2.66666C9.03486 2.66666 9.33334 2.96513 9.33334 3.33332H11.3333C11.3333 1.86056 10.1394 0.666656 8.66667 0.666656V2.66666ZM9.33334 3.33332V4.99999H11.3333V3.33332H9.33334Z" fill="#D9D9D9"/>
</svg>
