<svg width="20" height="20" viewBox="0 0 20 20" fill="none" xmlns="http://www.w3.org/2000/svg">
<path fill-rule="evenodd" clip-rule="evenodd" d="M9.99998 11.6667C10.9205 11.6667 11.6666 10.9205 11.6666 10C11.6666 9.07954 10.9205 8.33334 9.99998 8.33334C9.0795 8.33334 8.33331 9.07954 8.33331 10C8.33331 10.9205 9.0795 11.6667 9.99998 11.6667Z" stroke="#D9D9D9" stroke-width="2" stroke-linecap="round" stroke-linejoin="round"/>
<path fill-rule="evenodd" clip-rule="evenodd" d="M9.99998 4.99999C10.9205 4.99999 11.6666 4.2538 11.6666 3.33332C11.6666 2.41285 10.9205 1.66666 9.99998 1.66666C9.0795 1.66666 8.33331 2.41285 8.33331 3.33332C8.33331 4.2538 9.0795 4.99999 9.99998 4.99999Z" stroke="#D9D9D9" stroke-width="2" stroke-linecap="round" stroke-linejoin="round"/>
<path fill-rule="evenodd" clip-rule="evenodd" d="M9.99998 18.3333C10.9205 18.3333 11.6666 17.5871 11.6666 16.6667C11.6666 15.7462 10.9205 15 9.99998 15C9.0795 15 8.33331 15.7462 8.33331 16.6667C8.33331 17.5871 9.0795 18.3333 9.99998 18.3333Z" stroke="#D9D9D9" stroke-width="2" stroke-linecap="round" stroke-linejoin="round"/>
</svg>
